<svg width="76" height="76" viewBox="0 0 76 76" fill="none" xmlns="http://www.w3.org/2000/svg">
<path fill-rule="evenodd" clip-rule="evenodd" d="M46.3137 7.42163C34.0174 7.42163 24.049 17.3898 24.049 29.6863C24.049 41.9828 34.0172 51.951 46.3137 51.951C46.8561 51.951 47.394 51.9315 47.9264 51.8935C47.8841 51.6764 47.862 51.4531 47.862 51.2254C47.862 49.2717 49.4603 47.6734 51.414 47.6734H52.18C52.18 43.7501 55.3605 40.5695 59.284 40.5695C61.2781 40.5695 63.0804 41.3912 64.3704 42.7146C67.0178 39.0516 68.5782 34.5513 68.5782 29.6865C68.5784 17.39 58.6102 7.42163 46.3137 7.42163Z" fill="white"/>
<path fill-rule="evenodd" clip-rule="evenodd" d="M24.0492 29.6863C24.0492 17.3898 34.0174 7.42161 46.3139 7.42161C58.6104 7.42161 68.5786 17.3898 68.5786 29.6863C68.5786 34.5512 67.0183 39.0516 64.3709 42.7143C64.7548 43.1082 65.0936 43.5466 65.3786 44.0209C65.7679 43.9136 66.1777 43.856 66.601 43.856C67.8752 43.856 69.028 44.3754 69.8591 45.2142C72.8021 40.7608 74.5157 35.4239 74.5157 29.6865C74.5157 14.111 61.8892 1.4845 46.3137 1.4845C38.3029 1.4845 31.072 4.82465 25.9379 10.1882C23.5917 12.6393 21.6835 15.5129 20.3388 18.6835C18.905 22.0644 18.1117 25.7827 18.1117 29.6865C18.1117 35.8974 20.1196 41.6395 23.5215 46.2989C25.2486 48.6645 27.3351 50.751 29.7005 52.4783C34.3602 55.8803 40.1025 57.8883 46.3137 57.8883C50.9574 57.8883 55.3388 56.7656 59.2019 54.7773C56.5982 54.7773 53.9946 54.7773 51.3908 54.7773C49.6818 54.7773 48.2423 53.5159 47.9264 51.8934C47.394 51.9316 46.8561 51.951 46.3137 51.951C34.0174 51.951 24.0492 41.9828 24.0492 29.6863Z" fill="#FF8700"/>
<path fill-rule="evenodd" clip-rule="evenodd" d="M20.3388 18.6834C21.6836 15.5128 23.5918 12.6391 25.9379 10.1881C25.1651 8.74444 23.6426 7.76212 21.8907 7.76212C21.4672 7.76212 21.0574 7.81971 20.6682 7.92703C19.4263 5.85908 17.1616 4.4754 14.5739 4.4754C10.6504 4.4754 7.46996 7.65599 7.46996 11.5793H6.70391C4.75025 11.5793 3.15194 13.1776 3.15194 15.1313C3.15194 17.0619 4.74298 18.6833 6.6806 18.6833H20.3388V18.6834Z" fill="#0296E5"/>
<path fill-rule="evenodd" clip-rule="evenodd" d="M59.2841 40.5693C55.3606 40.5693 52.1802 43.7499 52.1802 47.6733H51.4141C49.4604 47.6733 47.8621 49.2716 47.8621 51.2252C47.8621 51.4529 47.8843 51.6764 47.9266 51.8933C48.2424 53.5156 49.6818 54.7772 51.3909 54.7772H59.202H71.1763C73.0131 54.7772 74.516 53.2743 74.516 51.4375C74.516 49.6005 73.0133 48.0978 71.1763 48.0978C71.0926 46.9759 70.6054 45.9664 69.8595 45.2139C69.0282 44.3753 67.8755 43.8559 66.6013 43.8559C66.1778 43.8559 65.768 43.9135 65.3788 44.0208C65.094 43.5464 64.7553 43.1081 64.3711 42.7142C63.0805 41.391 61.2784 40.5693 59.2841 40.5693Z" fill="#0296E5"/>
<path fill-rule="evenodd" clip-rule="evenodd" d="M23.8814 58.5508L17.449 52.1183L2.93879 66.0238C1.0034 67.9592 1.0034 71.126 2.93879 73.0614C4.87419 74.9968 8.04098 74.9968 9.97638 73.0614L23.8814 58.5508Z" fill="#FF8700"/>
<path fill-rule="evenodd" clip-rule="evenodd" d="M17.449 52.1183L23.8814 58.5507L29.7007 52.4781C27.3351 50.7508 25.2488 48.6643 23.5216 46.2988L17.449 52.1183Z" fill="#FFC144"/>
<path d="M38.8928 31.1707C39.7126 31.1707 40.3772 30.5062 40.3772 29.6863C40.3772 28.8665 39.7126 28.202 38.8928 28.202H38.8918C38.0719 28.202 37.4078 28.8665 37.4078 29.6863C37.4078 30.5062 38.073 31.1707 38.8928 31.1707Z" fill="black"/>
<path d="M46.3144 31.1707C47.1342 31.1707 47.7988 30.5062 47.7988 29.6863C47.7988 28.8665 47.1342 28.202 46.3144 28.202H46.3134C45.4935 28.202 44.8294 28.8665 44.8294 29.6863C44.8294 30.5062 45.4946 31.1707 46.3144 31.1707Z" fill="black"/>
<path d="M53.736 31.1707C54.5558 31.1707 55.2203 30.5062 55.2203 29.6863C55.2203 28.8665 54.5558 28.202 53.736 28.202H53.7349C52.9151 28.202 52.251 28.8665 52.251 29.6863C52.251 30.5062 52.9161 31.1707 53.736 31.1707Z" fill="black"/>
<path d="M72.4413 46.7819C72.2707 46.1852 72.0103 45.6263 71.6765 45.1203C74.5081 40.4772 76 35.1628 76 29.6864C76 13.3174 62.6827 0.00012207 46.3137 0.00012207C38.5089 0.00012207 31.3978 3.02768 26.0933 7.97015C24.9758 6.90174 23.4711 6.27803 21.8906 6.27803C21.7093 6.27803 21.5283 6.28605 21.3484 6.30208C19.7332 4.23814 17.2222 2.99131 14.5739 2.99131C10.332 2.99131 6.79858 6.0821 6.10793 10.1303C3.61057 10.4259 1.66745 12.5561 1.66745 15.1315C1.66745 17.9085 3.91619 20.1678 6.68043 20.1678H18.1923C17.1778 23.1571 16.6274 26.3586 16.6274 29.6864C16.6274 35.7492 18.4543 41.3934 21.5865 46.0973L1.91177 64.9521C1.9042 64.9594 1.89663 64.9668 1.88921 64.9742C-0.629674 67.4933 -0.629674 71.5919 1.88921 74.1109C3.14865 75.3704 4.80307 76.0002 6.45748 76.0002C8.1119 76.0002 9.76632 75.3704 11.0258 74.1109C11.0332 74.1035 11.0406 74.0959 11.0479 74.0884L29.9021 54.413C34.6063 57.5454 40.2506 59.3726 46.3137 59.3726C50.9709 59.3726 55.4244 58.3261 59.5565 56.2616H71.176C73.8359 56.2616 76 54.0975 76 51.4376C76 49.2152 74.4896 47.3391 72.4413 46.7819ZM6.68058 17.199C5.57239 17.199 4.63623 16.2522 4.63623 15.1314C4.63623 13.9913 5.56378 13.0637 6.70388 13.0637H7.46993C8.28972 13.0637 8.95425 12.3992 8.95425 11.5794C8.95425 8.48075 11.4752 5.95979 14.5739 5.95979C16.5658 5.95979 18.3684 6.98085 19.3957 8.69138C19.7388 9.26269 20.4206 9.53536 21.0628 9.35798C21.3311 9.28407 21.6095 9.24651 21.8906 9.24651C22.6917 9.24651 23.4548 9.5603 24.0248 10.0985C22.1584 12.2197 20.5893 14.6085 19.3832 17.1992H6.68058V17.199ZM8.91655 72.022C7.55424 73.3734 5.34647 73.3699 3.98847 72.0118C2.63033 70.6538 2.62691 68.446 3.97823 67.0836L17.427 54.1953L21.8046 58.5728L8.91655 72.022ZM23.8587 56.4289L19.5707 52.1407L23.3681 48.5014C24.6065 50.0091 25.9903 51.3927 27.4978 52.6313L23.8587 56.4289ZM19.5962 29.6863C19.5962 14.9541 31.5817 2.9686 46.3139 2.9686C61.046 2.9686 73.0315 14.9541 73.0315 29.6863C73.0315 34.422 71.7927 39.0222 69.4362 43.0806C68.5861 42.6279 67.6196 42.3717 66.601 42.3717C66.5314 42.3717 66.4619 42.3729 66.3926 42.3752C68.7977 38.581 70.0629 34.2206 70.0629 29.6864C70.0629 16.5912 59.4091 5.93738 46.3139 5.93738C42.4653 5.93738 38.641 6.88111 35.2542 8.66659C34.5291 9.04895 34.2511 9.94666 34.6333 10.6719C35.0155 11.397 35.9134 11.6749 36.6386 11.2928C39.6001 9.73114 42.9458 8.90586 46.3137 8.90586C57.772 8.90586 67.0941 18.228 67.0941 29.6863C67.0941 33.5525 66.0434 37.2738 64.0433 40.5322C62.6508 39.6061 60.9962 39.0851 59.2842 39.0851C55.0424 39.0851 51.5088 42.176 50.8183 46.2241C48.5709 46.49 46.7725 48.2417 46.435 50.4667C46.3962 50.4667 46.3559 50.4667 46.3139 50.4667C34.8555 50.4667 25.5334 41.1446 25.5334 29.6863C25.5334 26.3179 26.3586 22.9726 27.9196 20.0118C28.302 19.2866 28.0241 18.3889 27.2989 18.0065C26.5738 17.6241 25.6759 17.9021 25.2936 18.6272C23.5084 22.0133 22.5647 25.8374 22.5647 29.6863C22.5647 42.7815 33.2183 53.4353 46.3137 53.4353C46.5328 53.4353 46.7142 53.4347 46.8852 53.4317C47.535 54.7655 48.7547 55.7701 50.2235 56.1235C48.9409 56.3101 47.6365 56.4039 46.3139 56.4039C31.5816 56.4039 19.5962 44.4184 19.5962 29.6863ZM71.1761 53.293H51.3908C50.2826 53.293 49.3465 52.3461 49.3465 51.2253C49.3465 50.0852 50.274 49.1577 51.4141 49.1577H52.1802C52.9999 49.1577 53.6645 48.4931 53.6645 47.6733C53.6645 44.5747 56.1854 42.0537 59.2841 42.0537C61.2762 42.0537 63.0786 43.0748 64.1059 44.7852C64.4489 45.3566 65.1307 45.6293 65.7731 45.4518C66.0414 45.3777 66.3199 45.3403 66.6009 45.3403C68.2164 45.3403 69.5757 46.6 69.6958 48.2083C69.7536 48.9831 70.3991 49.5822 71.176 49.5822C72.1991 49.5822 73.0314 50.4144 73.0314 51.4376C73.0314 52.4607 72.1991 53.293 71.1761 53.293Z" fill="black"/>
<path d="M30.5702 15.4272C31.3901 15.4272 32.0546 14.7627 32.0546 13.9429C32.0546 13.1231 31.3901 12.4585 30.5702 12.4585H30.5692C29.7494 12.4585 29.0854 13.1231 29.0854 13.9429C29.0854 14.7627 29.7504 15.4272 30.5702 15.4272Z" fill="black"/>
</svg>
